<mxfile host="app.diagrams.net" modified="2022-01-14T05:19:01.707Z" agent="5.0 (Windows NT 10.0; Win64; x64) AppleWebKit/537.36 (KHTML, like Gecko) Chrome/96.0.4664.110 Safari/537.36" etag="gXcXXtZD2V5L_GbZst68" version="16.1.0" type="github">
  <diagram id="tKnEjriV3aYGxFc5lnND" name="Page-1">
    <mxGraphModel dx="1559" dy="891" grid="0" gridSize="10" guides="1" tooltips="1" connect="1" arrows="1" fold="1" page="1" pageScale="1" pageWidth="827" pageHeight="1169" math="0" shadow="0">
      <root>
        <mxCell id="0" />
        <mxCell id="1" parent="0" />
        <mxCell id="o7j8MIXzgkDj8vWXBpj4-12" style="edgeStyle=orthogonalEdgeStyle;rounded=0;orthogonalLoop=1;jettySize=auto;html=1;entryX=0.5;entryY=0;entryDx=0;entryDy=0;" edge="1" parent="1" source="o7j8MIXzgkDj8vWXBpj4-1" target="o7j8MIXzgkDj8vWXBpj4-7">
          <mxGeometry relative="1" as="geometry">
            <Array as="points">
              <mxPoint x="385" y="300" />
              <mxPoint x="355" y="300" />
            </Array>
          </mxGeometry>
        </mxCell>
        <mxCell id="o7j8MIXzgkDj8vWXBpj4-13" style="edgeStyle=orthogonalEdgeStyle;rounded=0;orthogonalLoop=1;jettySize=auto;html=1;" edge="1" parent="1" source="o7j8MIXzgkDj8vWXBpj4-1" target="o7j8MIXzgkDj8vWXBpj4-8">
          <mxGeometry relative="1" as="geometry">
            <Array as="points">
              <mxPoint x="385" y="300" />
              <mxPoint x="414" y="300" />
            </Array>
          </mxGeometry>
        </mxCell>
        <mxCell id="o7j8MIXzgkDj8vWXBpj4-14" style="edgeStyle=orthogonalEdgeStyle;rounded=0;orthogonalLoop=1;jettySize=auto;html=1;entryX=0.5;entryY=0;entryDx=0;entryDy=0;" edge="1" parent="1" source="o7j8MIXzgkDj8vWXBpj4-1" target="o7j8MIXzgkDj8vWXBpj4-9">
          <mxGeometry relative="1" as="geometry">
            <Array as="points">
              <mxPoint x="385" y="300" />
              <mxPoint x="475" y="300" />
            </Array>
          </mxGeometry>
        </mxCell>
        <mxCell id="o7j8MIXzgkDj8vWXBpj4-16" style="edgeStyle=orthogonalEdgeStyle;rounded=0;orthogonalLoop=1;jettySize=auto;html=1;entryX=0.5;entryY=0;entryDx=0;entryDy=0;" edge="1" parent="1" source="o7j8MIXzgkDj8vWXBpj4-1" target="o7j8MIXzgkDj8vWXBpj4-6">
          <mxGeometry relative="1" as="geometry">
            <Array as="points">
              <mxPoint x="385" y="300" />
              <mxPoint x="295" y="300" />
            </Array>
          </mxGeometry>
        </mxCell>
        <mxCell id="o7j8MIXzgkDj8vWXBpj4-20" style="edgeStyle=orthogonalEdgeStyle;rounded=0;orthogonalLoop=1;jettySize=auto;html=1;entryX=0.5;entryY=0;entryDx=0;entryDy=0;" edge="1" parent="1" source="o7j8MIXzgkDj8vWXBpj4-1" target="o7j8MIXzgkDj8vWXBpj4-10">
          <mxGeometry relative="1" as="geometry">
            <Array as="points">
              <mxPoint x="385" y="300" />
              <mxPoint x="535" y="300" />
            </Array>
          </mxGeometry>
        </mxCell>
        <mxCell id="o7j8MIXzgkDj8vWXBpj4-22" style="edgeStyle=orthogonalEdgeStyle;rounded=0;orthogonalLoop=1;jettySize=auto;html=1;entryX=0.5;entryY=0;entryDx=0;entryDy=0;" edge="1" parent="1" source="o7j8MIXzgkDj8vWXBpj4-1" target="o7j8MIXzgkDj8vWXBpj4-11">
          <mxGeometry relative="1" as="geometry">
            <Array as="points">
              <mxPoint x="385" y="300" />
              <mxPoint x="595" y="300" />
            </Array>
          </mxGeometry>
        </mxCell>
        <mxCell id="o7j8MIXzgkDj8vWXBpj4-23" style="edgeStyle=orthogonalEdgeStyle;rounded=0;orthogonalLoop=1;jettySize=auto;html=1;entryX=0.5;entryY=0;entryDx=0;entryDy=0;" edge="1" parent="1" source="o7j8MIXzgkDj8vWXBpj4-1" target="o7j8MIXzgkDj8vWXBpj4-5">
          <mxGeometry relative="1" as="geometry">
            <Array as="points">
              <mxPoint x="385" y="300" />
              <mxPoint x="235" y="300" />
            </Array>
          </mxGeometry>
        </mxCell>
        <mxCell id="o7j8MIXzgkDj8vWXBpj4-24" style="edgeStyle=orthogonalEdgeStyle;rounded=0;orthogonalLoop=1;jettySize=auto;html=1;entryX=0.5;entryY=0;entryDx=0;entryDy=0;" edge="1" parent="1" source="o7j8MIXzgkDj8vWXBpj4-1" target="o7j8MIXzgkDj8vWXBpj4-4">
          <mxGeometry relative="1" as="geometry">
            <Array as="points">
              <mxPoint x="385" y="300" />
              <mxPoint x="175" y="300" />
            </Array>
          </mxGeometry>
        </mxCell>
        <mxCell id="o7j8MIXzgkDj8vWXBpj4-149" style="edgeStyle=orthogonalEdgeStyle;rounded=0;orthogonalLoop=1;jettySize=auto;html=1;startArrow=none;startFill=0;" edge="1" parent="1" target="o7j8MIXzgkDj8vWXBpj4-146">
          <mxGeometry relative="1" as="geometry">
            <mxPoint x="390" y="300" as="sourcePoint" />
            <Array as="points">
              <mxPoint x="380" y="300" />
              <mxPoint x="665" y="300" />
            </Array>
          </mxGeometry>
        </mxCell>
        <mxCell id="o7j8MIXzgkDj8vWXBpj4-1" value="管理端" style="rounded=0;whiteSpace=wrap;html=1;" vertex="1" parent="1">
          <mxGeometry x="320" y="190" width="120" height="30" as="geometry" />
        </mxCell>
        <mxCell id="o7j8MIXzgkDj8vWXBpj4-4" value="用&lt;br&gt;户&lt;br&gt;管&lt;br&gt;理" style="rounded=0;whiteSpace=wrap;html=1;" vertex="1" parent="1">
          <mxGeometry x="160" y="380" width="30" height="110" as="geometry" />
        </mxCell>
        <mxCell id="o7j8MIXzgkDj8vWXBpj4-5" value="公&lt;br&gt;车&lt;br&gt;管&lt;br&gt;理" style="rounded=0;whiteSpace=wrap;html=1;" vertex="1" parent="1">
          <mxGeometry x="220" y="380" width="30" height="110" as="geometry" />
        </mxCell>
        <mxCell id="o7j8MIXzgkDj8vWXBpj4-6" value="经&lt;br&gt;费&lt;br&gt;类&lt;br&gt;别&lt;br&gt;管&lt;br&gt;理" style="rounded=0;whiteSpace=wrap;html=1;" vertex="1" parent="1">
          <mxGeometry x="280" y="380" width="30" height="110" as="geometry" />
        </mxCell>
        <mxCell id="o7j8MIXzgkDj8vWXBpj4-7" value="权&lt;br&gt;限&lt;br&gt;管&lt;br&gt;理" style="rounded=0;whiteSpace=wrap;html=1;" vertex="1" parent="1">
          <mxGeometry x="340" y="380" width="30" height="110" as="geometry" />
        </mxCell>
        <mxCell id="o7j8MIXzgkDj8vWXBpj4-8" value="公&lt;br&gt;车&lt;br&gt;使&lt;br&gt;用&lt;br&gt;管&lt;br&gt;理" style="rounded=0;whiteSpace=wrap;html=1;" vertex="1" parent="1">
          <mxGeometry x="399" y="380" width="30" height="110" as="geometry" />
        </mxCell>
        <mxCell id="o7j8MIXzgkDj8vWXBpj4-9" value="经&lt;br&gt;费&lt;br&gt;支&lt;br&gt;出&lt;br&gt;管&lt;br&gt;理" style="rounded=0;whiteSpace=wrap;html=1;" vertex="1" parent="1">
          <mxGeometry x="460" y="380" width="30" height="110" as="geometry" />
        </mxCell>
        <mxCell id="o7j8MIXzgkDj8vWXBpj4-10" value="统&lt;br&gt;计&lt;br&gt;管&lt;br&gt;理" style="rounded=0;whiteSpace=wrap;html=1;" vertex="1" parent="1">
          <mxGeometry x="520" y="380" width="30" height="110" as="geometry" />
        </mxCell>
        <mxCell id="o7j8MIXzgkDj8vWXBpj4-11" value="数&lt;br&gt;据&lt;br&gt;备&lt;br&gt;份" style="rounded=0;whiteSpace=wrap;html=1;" vertex="1" parent="1">
          <mxGeometry x="580" y="380" width="30" height="110" as="geometry" />
        </mxCell>
        <mxCell id="o7j8MIXzgkDj8vWXBpj4-26" style="edgeStyle=orthogonalEdgeStyle;rounded=0;orthogonalLoop=1;jettySize=auto;html=1;entryX=0.5;entryY=0;entryDx=0;entryDy=0;" edge="1" parent="1" source="o7j8MIXzgkDj8vWXBpj4-25" target="o7j8MIXzgkDj8vWXBpj4-1">
          <mxGeometry relative="1" as="geometry" />
        </mxCell>
        <mxCell id="o7j8MIXzgkDj8vWXBpj4-25" value="&lt;span&gt;公车后台管理系统&lt;/span&gt;" style="rounded=0;whiteSpace=wrap;html=1;" vertex="1" parent="1">
          <mxGeometry x="300" y="100" width="160" height="50" as="geometry" />
        </mxCell>
        <mxCell id="o7j8MIXzgkDj8vWXBpj4-32" value="" style="edgeStyle=orthogonalEdgeStyle;rounded=0;orthogonalLoop=1;jettySize=auto;html=1;" edge="1" parent="1" source="o7j8MIXzgkDj8vWXBpj4-27" target="o7j8MIXzgkDj8vWXBpj4-31">
          <mxGeometry relative="1" as="geometry" />
        </mxCell>
        <mxCell id="o7j8MIXzgkDj8vWXBpj4-27" value="用户登录页面" style="rounded=0;whiteSpace=wrap;html=1;" vertex="1" parent="1">
          <mxGeometry x="230" y="580" width="110" height="40" as="geometry" />
        </mxCell>
        <mxCell id="o7j8MIXzgkDj8vWXBpj4-100" style="edgeStyle=orthogonalEdgeStyle;rounded=0;orthogonalLoop=1;jettySize=auto;html=1;entryX=0.5;entryY=0;entryDx=0;entryDy=0;" edge="1" parent="1" source="o7j8MIXzgkDj8vWXBpj4-31" target="o7j8MIXzgkDj8vWXBpj4-99">
          <mxGeometry relative="1" as="geometry" />
        </mxCell>
        <mxCell id="o7j8MIXzgkDj8vWXBpj4-145" style="edgeStyle=orthogonalEdgeStyle;rounded=0;orthogonalLoop=1;jettySize=auto;html=1;startArrow=classic;startFill=1;" edge="1" parent="1" source="o7j8MIXzgkDj8vWXBpj4-31" target="o7j8MIXzgkDj8vWXBpj4-144">
          <mxGeometry relative="1" as="geometry">
            <Array as="points">
              <mxPoint x="285" y="830" />
              <mxPoint x="545" y="830" />
            </Array>
          </mxGeometry>
        </mxCell>
        <mxCell id="o7j8MIXzgkDj8vWXBpj4-31" value="菜单栏首页" style="whiteSpace=wrap;html=1;rounded=0;" vertex="1" parent="1">
          <mxGeometry x="225" y="690" width="120" height="60" as="geometry" />
        </mxCell>
        <mxCell id="o7j8MIXzgkDj8vWXBpj4-83" style="edgeStyle=orthogonalEdgeStyle;rounded=0;orthogonalLoop=1;jettySize=auto;html=1;entryX=0.5;entryY=0;entryDx=0;entryDy=0;" edge="1" parent="1" target="o7j8MIXzgkDj8vWXBpj4-94">
          <mxGeometry relative="1" as="geometry">
            <mxPoint x="285" y="750" as="sourcePoint" />
            <Array as="points">
              <mxPoint x="285" y="830" />
              <mxPoint x="255" y="830" />
            </Array>
          </mxGeometry>
        </mxCell>
        <mxCell id="o7j8MIXzgkDj8vWXBpj4-84" style="edgeStyle=orthogonalEdgeStyle;rounded=0;orthogonalLoop=1;jettySize=auto;html=1;" edge="1" parent="1" target="o7j8MIXzgkDj8vWXBpj4-95">
          <mxGeometry relative="1" as="geometry">
            <mxPoint x="285" y="750" as="sourcePoint" />
            <Array as="points">
              <mxPoint x="285" y="830" />
              <mxPoint x="314" y="830" />
            </Array>
          </mxGeometry>
        </mxCell>
        <mxCell id="o7j8MIXzgkDj8vWXBpj4-85" style="edgeStyle=orthogonalEdgeStyle;rounded=0;orthogonalLoop=1;jettySize=auto;html=1;entryX=0.5;entryY=0;entryDx=0;entryDy=0;" edge="1" parent="1" target="o7j8MIXzgkDj8vWXBpj4-96">
          <mxGeometry relative="1" as="geometry">
            <mxPoint x="285" y="750" as="sourcePoint" />
            <Array as="points">
              <mxPoint x="285" y="830" />
              <mxPoint x="375" y="830" />
            </Array>
          </mxGeometry>
        </mxCell>
        <mxCell id="o7j8MIXzgkDj8vWXBpj4-86" style="edgeStyle=orthogonalEdgeStyle;rounded=0;orthogonalLoop=1;jettySize=auto;html=1;entryX=0.5;entryY=0;entryDx=0;entryDy=0;" edge="1" parent="1" target="o7j8MIXzgkDj8vWXBpj4-93">
          <mxGeometry relative="1" as="geometry">
            <mxPoint x="285" y="750" as="sourcePoint" />
            <Array as="points">
              <mxPoint x="285" y="830" />
              <mxPoint x="195" y="830" />
            </Array>
          </mxGeometry>
        </mxCell>
        <mxCell id="o7j8MIXzgkDj8vWXBpj4-87" style="edgeStyle=orthogonalEdgeStyle;rounded=0;orthogonalLoop=1;jettySize=auto;html=1;entryX=0.5;entryY=0;entryDx=0;entryDy=0;" edge="1" parent="1" target="o7j8MIXzgkDj8vWXBpj4-97">
          <mxGeometry relative="1" as="geometry">
            <mxPoint x="285" y="750" as="sourcePoint" />
            <Array as="points">
              <mxPoint x="285" y="830" />
              <mxPoint x="435" y="830" />
            </Array>
          </mxGeometry>
        </mxCell>
        <mxCell id="o7j8MIXzgkDj8vWXBpj4-88" style="edgeStyle=orthogonalEdgeStyle;rounded=0;orthogonalLoop=1;jettySize=auto;html=1;entryX=0.5;entryY=0;entryDx=0;entryDy=0;" edge="1" parent="1" target="o7j8MIXzgkDj8vWXBpj4-98">
          <mxGeometry relative="1" as="geometry">
            <mxPoint x="285" y="750" as="sourcePoint" />
            <Array as="points">
              <mxPoint x="285" y="830" />
              <mxPoint x="495" y="830" />
            </Array>
          </mxGeometry>
        </mxCell>
        <mxCell id="o7j8MIXzgkDj8vWXBpj4-89" style="edgeStyle=orthogonalEdgeStyle;rounded=0;orthogonalLoop=1;jettySize=auto;html=1;entryX=0.5;entryY=0;entryDx=0;entryDy=0;" edge="1" parent="1" target="o7j8MIXzgkDj8vWXBpj4-92">
          <mxGeometry relative="1" as="geometry">
            <mxPoint x="285" y="750" as="sourcePoint" />
            <Array as="points">
              <mxPoint x="285" y="830" />
              <mxPoint x="135" y="830" />
            </Array>
          </mxGeometry>
        </mxCell>
        <mxCell id="o7j8MIXzgkDj8vWXBpj4-90" style="edgeStyle=orthogonalEdgeStyle;rounded=0;orthogonalLoop=1;jettySize=auto;html=1;entryX=0.5;entryY=0;entryDx=0;entryDy=0;startArrow=classic;startFill=1;" edge="1" parent="1" target="o7j8MIXzgkDj8vWXBpj4-91">
          <mxGeometry relative="1" as="geometry">
            <mxPoint x="285" y="750" as="sourcePoint" />
            <Array as="points">
              <mxPoint x="285" y="830" />
              <mxPoint x="75" y="830" />
            </Array>
          </mxGeometry>
        </mxCell>
        <mxCell id="o7j8MIXzgkDj8vWXBpj4-107" style="edgeStyle=orthogonalEdgeStyle;rounded=0;orthogonalLoop=1;jettySize=auto;html=1;entryX=0.5;entryY=0;entryDx=0;entryDy=0;" edge="1" parent="1" source="o7j8MIXzgkDj8vWXBpj4-91" target="o7j8MIXzgkDj8vWXBpj4-101">
          <mxGeometry relative="1" as="geometry" />
        </mxCell>
        <mxCell id="o7j8MIXzgkDj8vWXBpj4-108" style="edgeStyle=orthogonalEdgeStyle;rounded=0;orthogonalLoop=1;jettySize=auto;html=1;startArrow=classic;startFill=1;" edge="1" parent="1" source="o7j8MIXzgkDj8vWXBpj4-91" target="o7j8MIXzgkDj8vWXBpj4-102">
          <mxGeometry relative="1" as="geometry" />
        </mxCell>
        <mxCell id="o7j8MIXzgkDj8vWXBpj4-91" value="用&lt;br&gt;户&lt;br&gt;管&lt;br&gt;理" style="rounded=0;whiteSpace=wrap;html=1;" vertex="1" parent="1">
          <mxGeometry x="60" y="910" width="30" height="110" as="geometry" />
        </mxCell>
        <mxCell id="o7j8MIXzgkDj8vWXBpj4-129" style="edgeStyle=orthogonalEdgeStyle;rounded=0;orthogonalLoop=1;jettySize=auto;html=1;entryX=0.5;entryY=0;entryDx=0;entryDy=0;startArrow=classic;startFill=1;" edge="1" parent="1" source="o7j8MIXzgkDj8vWXBpj4-92" target="o7j8MIXzgkDj8vWXBpj4-118">
          <mxGeometry relative="1" as="geometry" />
        </mxCell>
        <mxCell id="o7j8MIXzgkDj8vWXBpj4-130" style="edgeStyle=orthogonalEdgeStyle;rounded=0;orthogonalLoop=1;jettySize=auto;html=1;entryX=0.5;entryY=0;entryDx=0;entryDy=0;startArrow=classic;startFill=1;" edge="1" parent="1" source="o7j8MIXzgkDj8vWXBpj4-92" target="o7j8MIXzgkDj8vWXBpj4-119">
          <mxGeometry relative="1" as="geometry" />
        </mxCell>
        <mxCell id="o7j8MIXzgkDj8vWXBpj4-92" value="公&lt;br&gt;车&lt;br&gt;管&lt;br&gt;理" style="rounded=0;whiteSpace=wrap;html=1;" vertex="1" parent="1">
          <mxGeometry x="120" y="910" width="30" height="110" as="geometry" />
        </mxCell>
        <mxCell id="o7j8MIXzgkDj8vWXBpj4-131" style="edgeStyle=orthogonalEdgeStyle;rounded=0;orthogonalLoop=1;jettySize=auto;html=1;entryX=0.5;entryY=0;entryDx=0;entryDy=0;startArrow=classic;startFill=1;" edge="1" parent="1" source="o7j8MIXzgkDj8vWXBpj4-93" target="o7j8MIXzgkDj8vWXBpj4-120">
          <mxGeometry relative="1" as="geometry" />
        </mxCell>
        <mxCell id="o7j8MIXzgkDj8vWXBpj4-132" style="edgeStyle=orthogonalEdgeStyle;rounded=0;orthogonalLoop=1;jettySize=auto;html=1;entryX=0.5;entryY=0;entryDx=0;entryDy=0;startArrow=classic;startFill=1;" edge="1" parent="1" source="o7j8MIXzgkDj8vWXBpj4-93" target="o7j8MIXzgkDj8vWXBpj4-121">
          <mxGeometry relative="1" as="geometry" />
        </mxCell>
        <mxCell id="o7j8MIXzgkDj8vWXBpj4-93" value="经&lt;br&gt;费&lt;br&gt;类&lt;br&gt;别&lt;br&gt;管&lt;br&gt;理" style="rounded=0;whiteSpace=wrap;html=1;" vertex="1" parent="1">
          <mxGeometry x="180" y="910" width="30" height="110" as="geometry" />
        </mxCell>
        <mxCell id="o7j8MIXzgkDj8vWXBpj4-133" style="edgeStyle=orthogonalEdgeStyle;rounded=0;orthogonalLoop=1;jettySize=auto;html=1;entryX=0.5;entryY=0;entryDx=0;entryDy=0;startArrow=classic;startFill=1;" edge="1" parent="1" source="o7j8MIXzgkDj8vWXBpj4-94" target="o7j8MIXzgkDj8vWXBpj4-122">
          <mxGeometry relative="1" as="geometry" />
        </mxCell>
        <mxCell id="o7j8MIXzgkDj8vWXBpj4-134" style="edgeStyle=orthogonalEdgeStyle;rounded=0;orthogonalLoop=1;jettySize=auto;html=1;startArrow=classic;startFill=1;" edge="1" parent="1" source="o7j8MIXzgkDj8vWXBpj4-94" target="o7j8MIXzgkDj8vWXBpj4-123">
          <mxGeometry relative="1" as="geometry" />
        </mxCell>
        <mxCell id="o7j8MIXzgkDj8vWXBpj4-135" style="edgeStyle=orthogonalEdgeStyle;rounded=0;orthogonalLoop=1;jettySize=auto;html=1;entryX=0.5;entryY=0;entryDx=0;entryDy=0;startArrow=classic;startFill=1;" edge="1" parent="1" source="o7j8MIXzgkDj8vWXBpj4-94" target="o7j8MIXzgkDj8vWXBpj4-128">
          <mxGeometry relative="1" as="geometry" />
        </mxCell>
        <mxCell id="o7j8MIXzgkDj8vWXBpj4-94" value="权&lt;br&gt;限&lt;br&gt;管&lt;br&gt;理" style="rounded=0;whiteSpace=wrap;html=1;" vertex="1" parent="1">
          <mxGeometry x="240" y="910" width="30" height="110" as="geometry" />
        </mxCell>
        <mxCell id="o7j8MIXzgkDj8vWXBpj4-136" style="edgeStyle=orthogonalEdgeStyle;rounded=0;orthogonalLoop=1;jettySize=auto;html=1;entryX=0.5;entryY=0;entryDx=0;entryDy=0;startArrow=classic;startFill=1;" edge="1" parent="1" source="o7j8MIXzgkDj8vWXBpj4-95" target="o7j8MIXzgkDj8vWXBpj4-124">
          <mxGeometry relative="1" as="geometry" />
        </mxCell>
        <mxCell id="o7j8MIXzgkDj8vWXBpj4-137" style="edgeStyle=orthogonalEdgeStyle;rounded=0;orthogonalLoop=1;jettySize=auto;html=1;startArrow=classic;startFill=1;" edge="1" parent="1" source="o7j8MIXzgkDj8vWXBpj4-95" target="o7j8MIXzgkDj8vWXBpj4-125">
          <mxGeometry relative="1" as="geometry" />
        </mxCell>
        <mxCell id="o7j8MIXzgkDj8vWXBpj4-95" value="公&lt;br&gt;车&lt;br&gt;使&lt;br&gt;用&lt;br&gt;管&lt;br&gt;理" style="rounded=0;whiteSpace=wrap;html=1;" vertex="1" parent="1">
          <mxGeometry x="299" y="910" width="30" height="110" as="geometry" />
        </mxCell>
        <mxCell id="o7j8MIXzgkDj8vWXBpj4-138" style="edgeStyle=orthogonalEdgeStyle;rounded=0;orthogonalLoop=1;jettySize=auto;html=1;entryX=0.5;entryY=0;entryDx=0;entryDy=0;startArrow=classic;startFill=1;" edge="1" parent="1" source="o7j8MIXzgkDj8vWXBpj4-96" target="o7j8MIXzgkDj8vWXBpj4-126">
          <mxGeometry relative="1" as="geometry" />
        </mxCell>
        <mxCell id="o7j8MIXzgkDj8vWXBpj4-139" style="edgeStyle=orthogonalEdgeStyle;rounded=0;orthogonalLoop=1;jettySize=auto;html=1;startArrow=classic;startFill=1;" edge="1" parent="1" source="o7j8MIXzgkDj8vWXBpj4-96" target="o7j8MIXzgkDj8vWXBpj4-127">
          <mxGeometry relative="1" as="geometry" />
        </mxCell>
        <mxCell id="o7j8MIXzgkDj8vWXBpj4-96" value="经&lt;br&gt;费&lt;br&gt;支&lt;br&gt;出&lt;br&gt;管&lt;br&gt;理" style="rounded=0;whiteSpace=wrap;html=1;" vertex="1" parent="1">
          <mxGeometry x="360" y="910" width="30" height="110" as="geometry" />
        </mxCell>
        <mxCell id="o7j8MIXzgkDj8vWXBpj4-142" style="edgeStyle=orthogonalEdgeStyle;rounded=0;orthogonalLoop=1;jettySize=auto;html=1;entryX=0.5;entryY=0;entryDx=0;entryDy=0;startArrow=classic;startFill=1;" edge="1" parent="1" source="o7j8MIXzgkDj8vWXBpj4-97" target="o7j8MIXzgkDj8vWXBpj4-140">
          <mxGeometry relative="1" as="geometry" />
        </mxCell>
        <mxCell id="o7j8MIXzgkDj8vWXBpj4-143" style="edgeStyle=orthogonalEdgeStyle;rounded=0;orthogonalLoop=1;jettySize=auto;html=1;entryX=0.5;entryY=0;entryDx=0;entryDy=0;startArrow=classic;startFill=1;" edge="1" parent="1" source="o7j8MIXzgkDj8vWXBpj4-97" target="o7j8MIXzgkDj8vWXBpj4-141">
          <mxGeometry relative="1" as="geometry" />
        </mxCell>
        <mxCell id="o7j8MIXzgkDj8vWXBpj4-97" value="统&lt;br&gt;计&lt;br&gt;管&lt;br&gt;理" style="rounded=0;whiteSpace=wrap;html=1;" vertex="1" parent="1">
          <mxGeometry x="420" y="910" width="30" height="110" as="geometry" />
        </mxCell>
        <mxCell id="o7j8MIXzgkDj8vWXBpj4-98" value="数&lt;br&gt;据&lt;br&gt;备&lt;br&gt;份" style="rounded=0;whiteSpace=wrap;html=1;" vertex="1" parent="1">
          <mxGeometry x="480" y="910" width="30" height="110" as="geometry" />
        </mxCell>
        <mxCell id="o7j8MIXzgkDj8vWXBpj4-103" style="edgeStyle=orthogonalEdgeStyle;rounded=0;orthogonalLoop=1;jettySize=auto;html=1;entryX=1;entryY=0.25;entryDx=0;entryDy=0;" edge="1" parent="1" source="o7j8MIXzgkDj8vWXBpj4-99" target="o7j8MIXzgkDj8vWXBpj4-27">
          <mxGeometry relative="1" as="geometry">
            <Array as="points">
              <mxPoint x="720" y="1045" />
              <mxPoint x="720" y="590" />
            </Array>
          </mxGeometry>
        </mxCell>
        <mxCell id="o7j8MIXzgkDj8vWXBpj4-99" value="退&lt;br&gt;出&lt;br&gt;登&lt;br&gt;录" style="rounded=0;whiteSpace=wrap;html=1;" vertex="1" parent="1">
          <mxGeometry x="620" y="990" width="30" height="110" as="geometry" />
        </mxCell>
        <mxCell id="o7j8MIXzgkDj8vWXBpj4-101" value="编&lt;br&gt;辑&lt;br&gt;用&lt;br&gt;户" style="rounded=0;whiteSpace=wrap;html=1;" vertex="1" parent="1">
          <mxGeometry x="50" y="1070" width="20" height="65" as="geometry" />
        </mxCell>
        <mxCell id="o7j8MIXzgkDj8vWXBpj4-102" value="添&lt;br&gt;加&lt;br&gt;用&lt;br&gt;户" style="rounded=0;whiteSpace=wrap;html=1;" vertex="1" parent="1">
          <mxGeometry x="80" y="1070" width="20" height="65" as="geometry" />
        </mxCell>
        <mxCell id="o7j8MIXzgkDj8vWXBpj4-118" value="编&lt;br&gt;辑&lt;br&gt;公车" style="rounded=0;whiteSpace=wrap;html=1;" vertex="1" parent="1">
          <mxGeometry x="110" y="1070" width="20" height="65" as="geometry" />
        </mxCell>
        <mxCell id="o7j8MIXzgkDj8vWXBpj4-119" value="添&lt;br&gt;加&lt;br&gt;公车" style="rounded=0;whiteSpace=wrap;html=1;" vertex="1" parent="1">
          <mxGeometry x="140" y="1070" width="20" height="65" as="geometry" />
        </mxCell>
        <mxCell id="o7j8MIXzgkDj8vWXBpj4-120" value="编&lt;br&gt;辑&lt;br&gt;类别" style="rounded=0;whiteSpace=wrap;html=1;" vertex="1" parent="1">
          <mxGeometry x="175" y="1070" width="20" height="65" as="geometry" />
        </mxCell>
        <mxCell id="o7j8MIXzgkDj8vWXBpj4-121" value="添&lt;br&gt;加&lt;br&gt;类别" style="rounded=0;whiteSpace=wrap;html=1;" vertex="1" parent="1">
          <mxGeometry x="205" y="1070" width="20" height="65" as="geometry" />
        </mxCell>
        <mxCell id="o7j8MIXzgkDj8vWXBpj4-122" value="编&lt;br&gt;辑&lt;br&gt;角色" style="rounded=0;whiteSpace=wrap;html=1;" vertex="1" parent="1">
          <mxGeometry x="230" y="1070" width="20" height="65" as="geometry" />
        </mxCell>
        <mxCell id="o7j8MIXzgkDj8vWXBpj4-123" value="添&lt;br&gt;加&lt;br&gt;角色" style="rounded=0;whiteSpace=wrap;html=1;" vertex="1" parent="1">
          <mxGeometry x="260" y="1070" width="20" height="65" as="geometry" />
        </mxCell>
        <mxCell id="o7j8MIXzgkDj8vWXBpj4-124" value="编&lt;br&gt;辑&lt;br&gt;使用" style="rounded=0;whiteSpace=wrap;html=1;" vertex="1" parent="1">
          <mxGeometry x="290" y="1070" width="20" height="65" as="geometry" />
        </mxCell>
        <mxCell id="o7j8MIXzgkDj8vWXBpj4-125" value="添&lt;br&gt;加&lt;br&gt;使用" style="rounded=0;whiteSpace=wrap;html=1;" vertex="1" parent="1">
          <mxGeometry x="320" y="1070" width="20" height="65" as="geometry" />
        </mxCell>
        <mxCell id="o7j8MIXzgkDj8vWXBpj4-126" value="编&lt;br&gt;辑&lt;br&gt;支出" style="rounded=0;whiteSpace=wrap;html=1;" vertex="1" parent="1">
          <mxGeometry x="349" y="1070" width="20" height="65" as="geometry" />
        </mxCell>
        <mxCell id="o7j8MIXzgkDj8vWXBpj4-127" value="添&lt;br&gt;加&lt;br&gt;支出" style="rounded=0;whiteSpace=wrap;html=1;" vertex="1" parent="1">
          <mxGeometry x="379" y="1070" width="20" height="65" as="geometry" />
        </mxCell>
        <mxCell id="o7j8MIXzgkDj8vWXBpj4-128" value="用户角色分配" style="rounded=0;whiteSpace=wrap;html=1;" vertex="1" parent="1">
          <mxGeometry x="245" y="1140" width="20" height="90" as="geometry" />
        </mxCell>
        <mxCell id="o7j8MIXzgkDj8vWXBpj4-140" value="支出统计" style="rounded=0;whiteSpace=wrap;html=1;" vertex="1" parent="1">
          <mxGeometry x="414" y="1070" width="20" height="65" as="geometry" />
        </mxCell>
        <mxCell id="o7j8MIXzgkDj8vWXBpj4-141" value="使用统计" style="rounded=0;whiteSpace=wrap;html=1;" vertex="1" parent="1">
          <mxGeometry x="450" y="1070" width="20" height="65" as="geometry" />
        </mxCell>
        <mxCell id="o7j8MIXzgkDj8vWXBpj4-152" style="edgeStyle=orthogonalEdgeStyle;rounded=0;orthogonalLoop=1;jettySize=auto;html=1;entryX=0.5;entryY=0;entryDx=0;entryDy=0;startArrow=none;startFill=0;" edge="1" parent="1" source="o7j8MIXzgkDj8vWXBpj4-144" target="o7j8MIXzgkDj8vWXBpj4-150">
          <mxGeometry relative="1" as="geometry" />
        </mxCell>
        <mxCell id="o7j8MIXzgkDj8vWXBpj4-153" style="edgeStyle=orthogonalEdgeStyle;rounded=0;orthogonalLoop=1;jettySize=auto;html=1;entryX=0.5;entryY=0;entryDx=0;entryDy=0;startArrow=none;startFill=0;" edge="1" parent="1" source="o7j8MIXzgkDj8vWXBpj4-144" target="o7j8MIXzgkDj8vWXBpj4-151">
          <mxGeometry relative="1" as="geometry" />
        </mxCell>
        <mxCell id="o7j8MIXzgkDj8vWXBpj4-144" value="审&lt;br&gt;批&lt;br&gt;管&lt;br&gt;理" style="rounded=0;whiteSpace=wrap;html=1;" vertex="1" parent="1">
          <mxGeometry x="530" y="910" width="30" height="110" as="geometry" />
        </mxCell>
        <mxCell id="o7j8MIXzgkDj8vWXBpj4-146" value="审&lt;br&gt;批&lt;br&gt;管&lt;br&gt;理" style="rounded=0;whiteSpace=wrap;html=1;" vertex="1" parent="1">
          <mxGeometry x="650" y="380" width="30" height="110" as="geometry" />
        </mxCell>
        <mxCell id="o7j8MIXzgkDj8vWXBpj4-150" value="审批" style="rounded=0;whiteSpace=wrap;html=1;" vertex="1" parent="1">
          <mxGeometry x="520" y="1070" width="20" height="65" as="geometry" />
        </mxCell>
        <mxCell id="o7j8MIXzgkDj8vWXBpj4-151" value="审批记录" style="rounded=0;whiteSpace=wrap;html=1;" vertex="1" parent="1">
          <mxGeometry x="560" y="1070" width="20" height="65" as="geometry" />
        </mxCell>
        <mxCell id="o7j8MIXzgkDj8vWXBpj4-162" style="rounded=0;orthogonalLoop=1;jettySize=auto;html=1;startArrow=classicThin;startFill=1;endArrow=none;endFill=0;" edge="1" parent="1" source="o7j8MIXzgkDj8vWXBpj4-154">
          <mxGeometry relative="1" as="geometry">
            <mxPoint x="300" y="1460" as="targetPoint" />
          </mxGeometry>
        </mxCell>
        <mxCell id="o7j8MIXzgkDj8vWXBpj4-163" style="edgeStyle=none;rounded=0;orthogonalLoop=1;jettySize=auto;html=1;startArrow=classic;startFill=1;endArrow=none;endFill=0;" edge="1" parent="1" source="o7j8MIXzgkDj8vWXBpj4-154">
          <mxGeometry relative="1" as="geometry">
            <mxPoint x="480" y="1460" as="targetPoint" />
          </mxGeometry>
        </mxCell>
        <mxCell id="o7j8MIXzgkDj8vWXBpj4-164" style="edgeStyle=none;rounded=0;orthogonalLoop=1;jettySize=auto;html=1;startArrow=classic;startFill=1;endArrow=none;endFill=0;" edge="1" parent="1" source="o7j8MIXzgkDj8vWXBpj4-154">
          <mxGeometry relative="1" as="geometry">
            <mxPoint x="640" y="1470" as="targetPoint" />
          </mxGeometry>
        </mxCell>
        <mxCell id="o7j8MIXzgkDj8vWXBpj4-165" style="edgeStyle=none;rounded=0;orthogonalLoop=1;jettySize=auto;html=1;startArrow=classic;startFill=1;endArrow=none;endFill=0;" edge="1" parent="1" source="o7j8MIXzgkDj8vWXBpj4-154">
          <mxGeometry relative="1" as="geometry">
            <mxPoint x="150" y="1460" as="targetPoint" />
          </mxGeometry>
        </mxCell>
        <mxCell id="o7j8MIXzgkDj8vWXBpj4-154" value="超级管理员" style="shape=umlActor;verticalLabelPosition=bottom;verticalAlign=top;html=1;outlineConnect=0;" vertex="1" parent="1">
          <mxGeometry x="399" y="1320" width="30" height="60" as="geometry" />
        </mxCell>
        <mxCell id="o7j8MIXzgkDj8vWXBpj4-155" value="公车录入员" style="shape=umlActor;verticalLabelPosition=bottom;verticalAlign=top;html=1;outlineConnect=0;" vertex="1" parent="1">
          <mxGeometry x="290" y="1470" width="30" height="60" as="geometry" />
        </mxCell>
        <mxCell id="o7j8MIXzgkDj8vWXBpj4-156" value="审批专员" style="shape=umlActor;verticalLabelPosition=bottom;verticalAlign=top;html=1;outlineConnect=0;" vertex="1" parent="1">
          <mxGeometry x="464" y="1480" width="30" height="60" as="geometry" />
        </mxCell>
        <mxCell id="o7j8MIXzgkDj8vWXBpj4-157" value="财务人员" style="shape=umlActor;verticalLabelPosition=bottom;verticalAlign=top;html=1;outlineConnect=0;" vertex="1" parent="1">
          <mxGeometry x="640" y="1480" width="30" height="60" as="geometry" />
        </mxCell>
        <mxCell id="o7j8MIXzgkDj8vWXBpj4-158" value="系统管理员" style="shape=umlActor;verticalLabelPosition=bottom;verticalAlign=top;html=1;outlineConnect=0;" vertex="1" parent="1">
          <mxGeometry x="130" y="1480" width="30" height="60" as="geometry" />
        </mxCell>
        <mxCell id="o7j8MIXzgkDj8vWXBpj4-189" value="统计管理" style="ellipse;whiteSpace=wrap;html=1;" vertex="1" parent="1">
          <mxGeometry x="240" y="2480" width="140" height="70" as="geometry" />
        </mxCell>
        <mxCell id="o7j8MIXzgkDj8vWXBpj4-191" value="审批管理" style="ellipse;whiteSpace=wrap;html=1;" vertex="1" parent="1">
          <mxGeometry x="240" y="2390" width="140" height="70" as="geometry" />
        </mxCell>
        <mxCell id="o7j8MIXzgkDj8vWXBpj4-192" value="用户管理" style="ellipse;whiteSpace=wrap;html=1;" vertex="1" parent="1">
          <mxGeometry x="240" y="1730" width="140" height="70" as="geometry" />
        </mxCell>
        <mxCell id="o7j8MIXzgkDj8vWXBpj4-193" value="经费支出管理" style="ellipse;whiteSpace=wrap;html=1;" vertex="1" parent="1">
          <mxGeometry x="239" y="2300" width="140" height="70" as="geometry" />
        </mxCell>
        <mxCell id="o7j8MIXzgkDj8vWXBpj4-194" value="公车使用管理" style="ellipse;whiteSpace=wrap;html=1;" vertex="1" parent="1">
          <mxGeometry x="239" y="2200" width="140" height="70" as="geometry" />
        </mxCell>
        <mxCell id="o7j8MIXzgkDj8vWXBpj4-195" value="角色分配" style="ellipse;whiteSpace=wrap;html=1;" vertex="1" parent="1">
          <mxGeometry x="239" y="2100" width="140" height="70" as="geometry" />
        </mxCell>
        <mxCell id="o7j8MIXzgkDj8vWXBpj4-196" value="公车管理" style="ellipse;whiteSpace=wrap;html=1;" vertex="1" parent="1">
          <mxGeometry x="245" y="1810" width="140" height="70" as="geometry" />
        </mxCell>
        <mxCell id="o7j8MIXzgkDj8vWXBpj4-197" value="经费类别管理" style="ellipse;whiteSpace=wrap;html=1;" vertex="1" parent="1">
          <mxGeometry x="239" y="1900" width="140" height="70" as="geometry" />
        </mxCell>
        <mxCell id="o7j8MIXzgkDj8vWXBpj4-198" value="角色管理" style="ellipse;whiteSpace=wrap;html=1;" vertex="1" parent="1">
          <mxGeometry x="240" y="2000" width="140" height="70" as="geometry" />
        </mxCell>
        <mxCell id="o7j8MIXzgkDj8vWXBpj4-218" style="edgeStyle=none;rounded=0;orthogonalLoop=1;jettySize=auto;html=1;entryX=1;entryY=0.714;entryDx=0;entryDy=0;entryPerimeter=0;startArrow=none;startFill=0;endArrow=classic;endFill=1;" edge="1" parent="1" source="o7j8MIXzgkDj8vWXBpj4-200" target="o7j8MIXzgkDj8vWXBpj4-192">
          <mxGeometry relative="1" as="geometry" />
        </mxCell>
        <mxCell id="o7j8MIXzgkDj8vWXBpj4-219" style="edgeStyle=none;rounded=0;orthogonalLoop=1;jettySize=auto;html=1;startArrow=none;startFill=0;endArrow=classic;endFill=1;" edge="1" parent="1" source="o7j8MIXzgkDj8vWXBpj4-200">
          <mxGeometry relative="1" as="geometry">
            <mxPoint x="390" y="1850" as="targetPoint" />
          </mxGeometry>
        </mxCell>
        <mxCell id="o7j8MIXzgkDj8vWXBpj4-220" style="edgeStyle=none;rounded=0;orthogonalLoop=1;jettySize=auto;html=1;startArrow=none;startFill=0;endArrow=classic;endFill=1;" edge="1" parent="1" source="o7j8MIXzgkDj8vWXBpj4-200">
          <mxGeometry relative="1" as="geometry">
            <mxPoint x="380" y="1940" as="targetPoint" />
          </mxGeometry>
        </mxCell>
        <mxCell id="o7j8MIXzgkDj8vWXBpj4-221" style="edgeStyle=none;rounded=0;orthogonalLoop=1;jettySize=auto;html=1;entryX=1;entryY=0.5;entryDx=0;entryDy=0;startArrow=none;startFill=0;endArrow=classic;endFill=1;" edge="1" parent="1" source="o7j8MIXzgkDj8vWXBpj4-200" target="o7j8MIXzgkDj8vWXBpj4-198">
          <mxGeometry relative="1" as="geometry" />
        </mxCell>
        <mxCell id="o7j8MIXzgkDj8vWXBpj4-222" style="edgeStyle=none;rounded=0;orthogonalLoop=1;jettySize=auto;html=1;startArrow=none;startFill=0;endArrow=classic;endFill=1;" edge="1" parent="1" source="o7j8MIXzgkDj8vWXBpj4-200">
          <mxGeometry relative="1" as="geometry">
            <mxPoint x="380" y="2130" as="targetPoint" />
          </mxGeometry>
        </mxCell>
        <mxCell id="o7j8MIXzgkDj8vWXBpj4-200" value="系统管理员" style="shape=umlActor;verticalLabelPosition=bottom;verticalAlign=top;html=1;outlineConnect=0;" vertex="1" parent="1">
          <mxGeometry x="660" y="1940" width="30" height="60" as="geometry" />
        </mxCell>
        <mxCell id="o7j8MIXzgkDj8vWXBpj4-223" style="edgeStyle=none;rounded=0;orthogonalLoop=1;jettySize=auto;html=1;startArrow=none;startFill=0;endArrow=classic;endFill=1;" edge="1" parent="1" source="o7j8MIXzgkDj8vWXBpj4-201">
          <mxGeometry relative="1" as="geometry">
            <mxPoint x="380" y="2220" as="targetPoint" />
          </mxGeometry>
        </mxCell>
        <mxCell id="o7j8MIXzgkDj8vWXBpj4-224" style="edgeStyle=none;rounded=0;orthogonalLoop=1;jettySize=auto;html=1;startArrow=none;startFill=0;endArrow=classic;endFill=1;" edge="1" parent="1" source="o7j8MIXzgkDj8vWXBpj4-201">
          <mxGeometry relative="1" as="geometry">
            <mxPoint x="380" y="2330" as="targetPoint" />
          </mxGeometry>
        </mxCell>
        <mxCell id="o7j8MIXzgkDj8vWXBpj4-201" value="公车录入员" style="shape=umlActor;verticalLabelPosition=bottom;verticalAlign=top;html=1;outlineConnect=0;" vertex="1" parent="1">
          <mxGeometry x="660" y="2060" width="30" height="60" as="geometry" />
        </mxCell>
        <mxCell id="o7j8MIXzgkDj8vWXBpj4-225" style="edgeStyle=none;rounded=0;orthogonalLoop=1;jettySize=auto;html=1;startArrow=none;startFill=0;endArrow=classic;endFill=1;" edge="1" parent="1" source="o7j8MIXzgkDj8vWXBpj4-202">
          <mxGeometry relative="1" as="geometry">
            <mxPoint x="390" y="2420" as="targetPoint" />
          </mxGeometry>
        </mxCell>
        <mxCell id="o7j8MIXzgkDj8vWXBpj4-202" value="审批专员" style="shape=umlActor;verticalLabelPosition=bottom;verticalAlign=top;html=1;outlineConnect=0;" vertex="1" parent="1">
          <mxGeometry x="660" y="2278" width="30" height="60" as="geometry" />
        </mxCell>
        <mxCell id="o7j8MIXzgkDj8vWXBpj4-226" style="edgeStyle=none;rounded=0;orthogonalLoop=1;jettySize=auto;html=1;startArrow=none;startFill=0;endArrow=classic;endFill=1;" edge="1" parent="1" source="o7j8MIXzgkDj8vWXBpj4-203">
          <mxGeometry relative="1" as="geometry">
            <mxPoint x="390" y="2520" as="targetPoint" />
          </mxGeometry>
        </mxCell>
        <mxCell id="o7j8MIXzgkDj8vWXBpj4-203" value="财务人员" style="shape=umlActor;verticalLabelPosition=bottom;verticalAlign=top;html=1;outlineConnect=0;" vertex="1" parent="1">
          <mxGeometry x="660" y="2450" width="30" height="60" as="geometry" />
        </mxCell>
      </root>
    </mxGraphModel>
  </diagram>
</mxfile>
